<svg
   xmlns:dc="http://purl.org/dc/elements/1.1/"
   xmlns:cc="http://creativecommons.org/ns#"
   xmlns:rdf="http://www.w3.org/1999/02/22-rdf-syntax-ns#"
   xmlns:svg="http://www.w3.org/2000/svg"
   xmlns="http://www.w3.org/2000/svg"
   id="svg28"
   xml:space="preserve"
   enable-backgrounfill="inherit"
   viewBox="0 0 270 85"
   height="85"
   width="270"
   y="0px"
   x="0px"
   d="new 0 0 300 90.722"
   fill="currentColor"
   version="1.1">
  <g
   transform="translate(0,-5.7220006)"
   id="g20"
   class="logo_horz__lettering" fill="#fff">
  </g>
  <g
   transform="translate(-7.664,4.6855006)"
   id="g862" fill="currentColor"><path
     transform="translate(0,-5.7220006)"
     fill="white"
     d="M 104.869,58.549 92.163,32.148 V 58.549 H 89.865 V 26.786 h 2.073 l 12.706,26.583 V 26.922 h 2.343 v 31.627 z"
     id="path2" /><path
     transform="translate(0,-5.7220006)"
     fill="white"
     d="M 112.348,50.035 V 35.301 c 0,-5.226 3.469,-8.875 8.47,-8.875 5,0 8.56,3.649 8.56,8.875 v 14.733 c 0,5.181 -3.56,8.831 -8.56,8.831 -5.001,10e-4 -8.47,-3.65 -8.47,-8.83 z m 14.688,0.046 V 35.212 c 0,-4.011 -2.614,-6.489 -6.218,-6.489 -3.469,0 -6.172,2.389 -6.172,6.489 v 14.869 c 0,4.055 2.613,6.487 6.172,6.487 3.47,0 6.218,-2.388 6.218,-6.487 z"
     id="path4" /><path
     transform="translate(0,-5.7220006)"
     fill="white"
     d="m 142.49,26.786 c 5.722,0 8.74,3.379 8.74,10.047 v 10.679 c 0,7.884 -2.839,11.037 -8.695,11.037 h -7.84 V 26.786 h 5.812 z m 0,2.298 h -5.497 v 27.213 h 5.497 c 4.775,0 6.397,-2.434 6.397,-8.426 V 36.383 c 0,-5.182 -2.478,-7.299 -6.397,-7.299 z"
     id="path6" /><path
     transform="translate(0,-5.7220006)"
     fill="white"
     d="M 155.826,50.035 V 35.301 c 0,-5.226 3.469,-8.875 8.471,-8.875 5,0 8.56,3.649 8.56,8.875 v 14.733 c 0,5.181 -3.56,8.831 -8.56,8.831 -5.002,10e-4 -8.471,-3.65 -8.471,-8.83 z m 14.688,0.046 V 35.212 c 0,-4.011 -2.613,-6.489 -6.217,-6.489 -3.471,0 -6.173,2.389 -6.173,6.489 v 14.869 c 0,4.055 2.613,6.487 6.173,6.487 3.469,0 6.217,-2.388 6.217,-6.487 z"
     id="path8" /><path
     transform="translate(0,-5.7220006)"
     fill="white"
     d="m 180.471,49.224 v 9.325 h -2.342 V 26.786 h 7.568 c 5.046,0 8.335,3.109 8.335,8.696 v 5.226 c 0,5.587 -3.289,8.517 -8.335,8.517 h -5.226 z m 0,-2.254 h 5.047 c 3.694,0 6.218,-2.026 6.218,-6.263 v -5.226 c 0,-4.505 -2.568,-6.397 -6.218,-6.397 h -5.047 z"
     id="path10" /><path
     transform="translate(0,-5.7220006)"
     fill="white"
     d="m 201.286,26.786 v 31.763 h -2.343 V 26.786 Z"
     id="path12" /><path
     transform="translate(0,-5.7220006)"
     fill="white"
     d="m 220.704,50.53 h -11.038 l -2.208,8.02 h -2.433 l 8.921,-31.763 h 2.568 l 8.785,31.763 h -2.433 z m -10.497,-2.072 h 10.002 L 215.253,30.21 Z"
     id="path14" /><path
     transform="translate(0,-5.7220006)"
     fill="white"
     d="M 244.088,58.549 231.382,32.148 v 26.401 h -2.297 V 26.786 h 2.072 l 12.705,26.583 V 26.922 h 2.343 v 31.627 z"
     id="path16" /><path
     transform="translate(0,-5.7220006)"
     fill="white"
     d="M 251.566,50.035 V 35.301 c 0,-5.226 3.47,-8.875 8.471,-8.875 5.001,0 8.561,3.649 8.561,8.875 v 14.733 c 0,5.181 -3.56,8.831 -8.561,8.831 -5.001,0 -8.471,-3.65 -8.471,-8.83 z m 14.689,0.046 V 35.212 c 0,-4.011 -2.613,-6.489 -6.218,-6.489 -3.47,0 -6.172,2.389 -6.172,6.489 v 14.869 c 0,4.055 2.613,6.487 6.172,6.487 3.469,0 6.218,-2.388 6.218,-6.487 z"
     id="path18" /><g
     id="g26"
     transform="translate(0,-5.7220006)">
    <path
    fill="inherit"
   d="m 47.832,6.87 c -1.884,0 -3.655,0.733 -4.988,2.065 L 19.971,31.808 c -1.333,1.332 -2.066,3.104 -2.066,4.989 0,1.883 0.733,3.655 2.066,4.988 l 22.873,22.873 c 1.333,1.332 3.104,2.066 4.988,2.066 1.884,0 3.656,-0.734 4.987,-2.066 l 22.874,-22.873 0.409,0.407 -0.409,-0.407 c 1.333,-1.333 2.067,-3.104 2.067,-4.988 0,-1.885 -0.734,-3.657 -2.067,-4.989 L 52.819,8.935 C 51.488,7.603 49.716,6.87 47.832,6.87 m 0,61.003 c -2.102,0 -4.204,-0.801 -5.804,-2.399 L 19.155,42.6 c -1.55,-1.55 -2.404,-3.612 -2.404,-5.803 0,-2.194 0.854,-4.254 2.404,-5.805 L 42.028,8.119 c 1.55,-1.55 3.611,-2.404 5.804,-2.404 2.193,0 4.254,0.854 5.803,2.404 l 22.874,22.873 c 1.551,1.55 2.404,3.611 2.404,5.805 0,2.191 -0.853,4.253 -2.404,5.803 L 53.635,65.473 c -1.6,1.599 -3.701,2.4 -5.803,2.4"
   id="path22"
   style="fill-opacity:1" />
    <path
   d="m 77.688,46.019 -0.836,0.836 c 0.585,1.033 0.891,2.202 0.885,3.421 0.006,1.885 -0.726,3.655 -2.06,4.989 L 52.803,78.139 c -1.334,1.334 -3.104,2.066 -4.989,2.061 -1.885,0.006 -3.651,-0.732 -4.983,-2.065 L 19.949,55.265 c -1.328,-1.339 -2.066,-3.104 -2.06,-4.989 0,-1.224 0.311,-2.411 0.896,-3.454 L 17.943,45.98 c -0.792,1.284 -1.213,2.754 -1.213,4.296 0.006,2.19 0.853,4.25 2.405,5.804 L 42.01,78.954 c 1.547,1.547 3.612,2.399 5.804,2.404 2.191,-0.005 4.257,-0.857 5.804,-2.404 L 76.492,56.08 c 2.727,-2.728 3.136,-6.908 1.196,-10.061 M 53.617,21.597 c -1.553,-1.553 -3.612,-2.399 -5.804,-2.405 -2.192,0.006 -4.251,0.853 -5.804,2.405 l -18.82,18.819 0.814,0.814 18.82,-18.82 c 1.334,-1.333 3.104,-2.066 4.99,-2.06 1.885,-0.006 3.655,0.727 4.989,2.06 l 18.831,18.832 0.813,-0.814 z"
   id="path24"
   style="fill:#fff" />
  </g></g>
</svg>
